<svg width="72" height="40" viewBox="0 0 72 40" fill="none" xmlns="http://www.w3.org/2000/svg">
<path d="M20 0C8.95405 0 0 8.95488 0 20C0 31.0452 8.95405 40 20 40C31.0459 40 40 31.0452 40 20C40 8.95488 31.0459 0 20 0ZM13.7719 28.2535C13.7719 29.2366 12.9686 30.0407 11.9855 30.0407H8.60006V16.8634H11.9855C12.9686 16.8634 13.7719 17.6675 13.7719 18.6498V28.2535ZM30.8299 24.9017C30.8299 25.6713 30.3536 26.3135 29.7153 26.4802C30.1022 26.771 30.3577 27.2671 30.3577 27.8297C30.3577 28.7241 29.7137 29.4502 28.9179 29.4502H24.2043C24.2043 29.4502 20.5839 29.7335 18.4838 28.8456C16.4494 27.9841 14.2729 28.8168 14.2729 28.8168V18.6194C14.2729 18.6194 15.6807 18.7368 16.2654 18.4625C16.8527 18.189 18.4173 16.7813 19.1212 15.9205C19.8251 15.0614 20.5725 14.2639 20.7277 12.3083C20.8846 10.3536 22.4073 9.11666 23.8528 10.6419C25.1702 12.0299 24.3127 14.3592 22.8533 16.9176H29.1734C29.9684 16.9176 30.6139 17.6444 30.6139 18.5388C30.6139 19.2403 30.2173 19.8365 29.6612 20.0624H29.8748C30.7174 20.0624 31.4 20.8303 31.4 21.7789C31.4 22.6487 30.8234 23.3665 30.0777 23.4774C30.5252 23.7518 30.8299 24.2873 30.8299 24.9017Z" fill="url(#paint0_linear_143_433)"/>
<path d="M52.0001 0C41.1054 0 32.2739 8.83145 32.2739 19.7262C32.2739 30.6209 41.1054 39.4523 52.0001 39.4523C62.8956 39.4523 71.7262 30.6209 71.7262 19.7262C71.7262 8.83145 62.8956 0 52.0001 0ZM63.2439 16.7135C62.9548 20.1183 60.1616 24.3144 51.9985 29.5799C43.8369 24.3144 41.0446 20.1182 40.7562 16.7135V15.5316C41.0649 11.9754 43.6109 10.1187 45.816 9.92344C46.1781 9.88781 46.5159 9.87242 46.8334 9.87242C49.3787 9.87242 50.6011 12.3829 51.9985 13.9171C53.3975 12.3828 54.619 9.87242 57.1627 9.87242C57.4819 9.87242 57.8229 9.88781 58.1826 9.92344C60.3868 10.1187 62.9296 11.9754 63.2439 15.5316V16.7135Z" fill="url(#paint1_linear_143_433)"/>
<defs>
<linearGradient id="paint0_linear_143_433" x1="20" y1="0" x2="20" y2="40" gradientUnits="userSpaceOnUse">
<stop stop-color="#33A4FC"/>
<stop offset="1" stop-color="#1962F4"/>
</linearGradient>
<linearGradient id="paint1_linear_143_433" x1="52.0001" y1="0" x2="52.0001" y2="39.4523" gradientUnits="userSpaceOnUse">
<stop stop-color="#FF607E"/>
<stop offset="1" stop-color="#FF102E"/>
</linearGradient>
</defs>
</svg>
